<svg class="svg-icon" style="width: 1em; height: 1em;vertical-align: middle;fill: rgb(50, 50, 50);overflow: hidden;" viewBox="0 0 1024 1024" version="1.1" xmlns="http://www.w3.org/2000/svg"><path d="M800 198.4l-576 0C204.8 198.4 192 211.2 192 230.4l0 576c0 19.2 12.8 32 32 32l576 0c19.2 0 32-12.8 32-32l0-576C832 211.2 819.2 198.4 800 198.4zM800 774.4c0 19.2-12.8 32-32 32L256 806.4c-19.2 0-32-12.8-32-32l0-512c0-19.2 12.8-32 32-32l512 0c19.2 0 32 12.8 32 32L800 774.4z"  /><path d="M633.6 416 390.4 416c-32 0-51.2 38.4-25.6 64l121.6 121.6c12.8 12.8 38.4 12.8 51.2 0l121.6-121.6C684.8 460.8 665.6 416 633.6 416z"  /></svg>